<?xml version="1.0" encoding="UTF-8"?>
<svg id="issaklogo" xmlns="http://www.w3.org/2000/svg" xmlns:xlink="http://www.w3.org/1999/xlink" viewBox="0 0 85 85">
  <defs>
    <style>
      .cls-1 {
        fill: none;
      }

      .cls-2 {
        clip-path: url(#clippath);
      }

      .cls-3 {
        fill: url(#_名称未設定グラデーション_3-3);
      }

      .cls-4 {
        fill: url(#_名称未設定グラデーション_3-2);
      }

      .cls-5 {
        fill: #f1f2f8;
      }

      .cls-6 {
        fill: #1d2363;
      }

      .cls-7 {
        fill: #9ab0df;
      }

      .cls-8 {
        fill: url(#_名称未設定グラデーション_3);
      }
    </style>
    <clipPath id="clippath">
      <circle class="cls-1" cx="42.5" cy="42.5" r="42.5"/>
    </clipPath>
    <linearGradient id="_名称未設定グラデーション_3" data-name="名称未設定グラデーション 3" x1="25.36" y1="80.59" x2="25.36" y2="13.04" gradientUnits="userSpaceOnUse">
      <stop offset="0" stop-color="#b49a67" stop-opacity=".3"/>
      <stop offset=".44" stop-color="#b49a67"/>
    </linearGradient>
    <linearGradient id="_名称未設定グラデーション_3-2" data-name="名称未設定グラデーション 3" x1="60.13" y1="73.3" x2="60.13" y2="45.7" xlink:href="#_名称未設定グラデーション_3"/>
    <linearGradient id="_名称未設定グラデーション_3-3" data-name="名称未設定グラデーション 3" x1="72.37" y1="73.22" x2="72.37" y2="45.62" xlink:href="#_名称未設定グラデーション_3"/>
  </defs>
  <g class="cls-2">
    <circle class="cls-5" cx="42.5" cy="42.5" r="42.5"/>
    <path class="cls-7" d="M86.8,74.24l6.03-.08,1.13-2.19-6.03,.08c-.12-.9-.98-1.72-2.45-2.42l4.86-1.22-4.86-1.48-4.86,1.22c-2.39-.47-5.26-.78-8.49-.9l.85-1.65-8.01,.11-.85,1.65c-3.39,.21-6.63,.6-9.55,1.14l-3.66-1.11-6.47,1.63,3.66,1.11c-2.22,.75-3.95,1.61-5.01,2.52l-6.03,.08-1.13,2.19,6.02-.08c.12,.9,.98,1.72,2.46,2.42l-4.86,1.22,4.86,1.48,4.86-1.22c2.39,.47,5.27,.78,8.49,.9l-.85,1.65,8.02-.11,.85-1.65c3.39-.21,6.63-.6,9.55-1.14l3.65,1.11,6.47-1.63-3.65-1.11c2.22-.75,3.95-1.61,5.01-2.52Zm-15.8,1.04c-2.07,.52-4.71,.86-7.46,.9-2.75,.04-5.08-.23-6.63-.71-1.55-.47-2.32-1.14-1.93-1.89,.39-.75,1.86-1.45,3.92-1.97,2.07-.52,4.71-.86,7.46-.9,2.76-.04,5.08,.24,6.64,.71,1.55,.47,2.32,1.14,1.93,1.89-.39,.75-1.85,1.45-3.92,1.97Z"/>
    <path class="cls-7" d="M56.97,66.57l5.18-2.81-7.18-.67c1.38-1.18,1.88-2.4,1.37-3.58l7.84-1.02-3.1-2.62-7.84,1.02c-2.04-.98-4.91-1.76-8.34-2.32l3.9-2.11-9.56-.89-3.9,2.11c-4.16-.16-8.64-.06-13.17,.31l-2.33-1.97-10.43,1.36,2.33,1.97c-4.08,.75-7.56,1.69-10.29,2.75l-7.19-.67-5.18,2.81,7.18,.67c-1.38,1.18-1.88,2.4-1.37,3.58l-7.84,1.02,3.1,2.62,7.84-1.02c2.04,.98,4.9,1.76,8.34,2.32l-3.89,2.11,9.56,.89,3.89-2.11c4.16,.16,8.64,.06,13.17-.31l2.33,1.97,10.43-1.36-2.33-1.97c4.08-.75,7.56-1.69,10.29-2.75l7.18,.67Zm-27.5-1.31c-3.58,.47-7.24,.52-10.3,.24-3.06-.29-5.46-.91-6.53-1.81-1.06-.9-.57-1.9,1.08-2.8,1.66-.9,4.46-1.68,8.04-2.15,3.58-.47,7.24-.52,10.3-.24,3.06,.29,5.46,.91,6.53,1.81,1.06,.9,.57,1.9-1.08,2.8-1.66,.9-4.46,1.68-8.04,2.15Z"/>
    <path class="cls-8" d="M30.93,32.89c.82-9.33,2.7-12.3,4.69-12.29,1.66,.01,2.5,3.16,2.5,4.02,0,.39-.09,.71-.25,.7-.08,0-.17-.16-.22-.39-.21-1.1-.54-1.89-1.07-1.89-.78,0-1.15,1.8-1.63,7.05l-.9,10.12c-1.09,12.16-3.28,16.46-7.11,16.43l-.06,17.19c-.03,4.71,.02,4.87,2.74,5.2,.17,0,.27,.32,.27,.79,0,.39-.09,.78-.28,.78-.11,0-.31,0-.89-.08-1.08-.16-2.58-.33-3.69-.34s-2.61,.14-3.69,.29c-.58,.07-.78,.07-.89,.07-.19,0-.27-.39-.27-.79,0-.47,.12-.78,.28-.78,2.72-.29,2.78-.45,2.81-5.16l.06-17.19c-3.83-.03-5.96-4.36-6.87-16.53l-.76-10.13c-.41-5.26-.75-7.07-1.53-7.07-.53,0-.87,.78-1.1,1.88-.06,.24-.14,.39-.22,.39-.17,0-.25-.32-.24-.71,0-.86,.89-4,2.55-3.98,2,.01,3.84,3.01,4.52,12.35l.73,9.97c.63,8.72,1.3,12.25,2.94,12.26l.25-35.23c.03-4.71-.02-4.87-2.74-5.2-.17,0-.28-.32-.27-.79,0-.39,.09-.78,.28-.78,.11,0,.31,0,.89,.08,1.08,.16,2.58,.33,3.69,.34s2.61-.14,3.69-.29c.58-.07,.78-.07,.89-.07,.19,0,.27,.39,.27,.79,0,.47-.12,.78-.28,.78-2.72,.29-2.78,.45-2.81,5.16l-.25,35.23c1.64,.01,2.36-3.51,3.11-12.22l.88-9.96Z"/>
    <path class="cls-7" d="M75.14,72.62c.12,.23,.13,.47,0,.73-.39,.76-1.87,1.46-3.95,1.98-2.08,.52-4.74,.86-7.51,.9-2.77,.04-5.11-.24-6.67-.71-1.56-.48-2.33-1.14-1.94-1.9,.18-.35,.6-.69,1.2-1h-13.07s-.05,.04-.08,.06l-6.07,.08-1.14,2.21,6.06-.08c.12,.9,.99,1.73,2.47,2.43l-4.89,1.23,4.89,1.48,4.89-1.23c2.4,.47,5.3,.79,8.54,.91l-.86,1.66,8.07-.11,.86-1.66c3.41-.21,6.67-.6,9.61-1.15l3.68,1.12,6.51-1.64-3.68-1.12c2.24-.75,3.97-1.61,5.04-2.53l6.06-.08,.82-1.58h-18.83Z"/>
    <path class="cls-7" d="M56.02,62.03h-17.18c-.27,.36-.73,.71-1.36,1.05-1.67,.91-4.49,1.69-8.09,2.16-3.61,.47-7.29,.53-10.37,.24-3.07-.29-5.5-.91-6.57-1.82-.62-.52-.71-1.08-.36-1.63H-5.07c-.54,.81-.67,1.63-.32,2.44l-7.89,1.03,3.12,2.64,7.89-1.03c2.06,.99,4.94,1.77,8.39,2.33l-3.92,2.13,9.62,.9,3.92-2.13c4.19,.16,8.7,.06,13.26-.31l2.34,1.98,10.49-1.37-2.34-1.98c4.1-.76,7.61-1.7,10.36-2.76l7.23,.67,5.22-2.83-7.23-.67c.4-.34,.72-.68,.97-1.03Z"/>
    <g>
      <path class="cls-4" d="M65.79,46.55c0-.31-.6-.88-.92-.85-1.78,.18-3.36,1.23-4.6,1.76-2.75,1.18-4.08,8.16-5.28,10.74-.68,1.45-.69,4.75,0,6.16,1.17,2.4,1.94,5.81,6.28,8.63,.73,.47,2.7,.35,3.49,0,.4-.18,1.02-.97,1.02-1.4"/>
      <path class="cls-3" d="M66.72,46.47c0-.31,.6-.88,.92-.85,1.78,.18,3.36,1.23,4.6,1.76,2.75,1.18,4.08,8.16,5.28,10.74,.68,1.45,.69,4.75,0,6.16-1.17,2.4-1.94,5.81-6.28,8.63-.73,.47-2.7,.35-3.49,0-.4-.18-1.02-.97-1.02-1.4"/>
    </g>
    <g>
      <path class="cls-6" d="M43.88,22.16v1.36c0,.1,.05,.17,.15,.22,.1,.04,.24,.08,.44,.1,.05,0,.08,.05,.08,.11,0,.03,0,.07-.01,.11-.13,0-.27-.02-.44-.02-.16,0-.34,0-.53,0-.12,0-.25,0-.39,0-.15,0-.28,.01-.41,.02,0-.04-.01-.08-.01-.11,0-.06,.02-.1,.07-.11,.18-.04,.3-.07,.36-.1s.09-.09,.09-.18v-3.38c0-.09-.04-.15-.1-.19-.07-.04-.19-.07-.37-.09-.04,0-.07-.05-.07-.12,0-.03,0-.06,.01-.1,.12,0,.26,.02,.4,.02s.27,0,.4,0h.94c.48,0,.84,.11,1.08,.34s.36,.52,.36,.88c0,.14-.03,.29-.1,.43-.06,.15-.16,.28-.28,.4s-.27,.21-.45,.29c-.18,.08-.38,.11-.61,.11h-.58Zm.35-.27c.31,0,.55-.07,.72-.21,.17-.14,.25-.37,.25-.7,0-.14-.02-.27-.05-.39-.03-.12-.08-.22-.16-.32-.08-.09-.17-.16-.3-.22-.12-.05-.28-.08-.46-.08h-.35v1.9h.35Z"/>
      <path class="cls-6" d="M48.14,21.97s-.06,0-.08-.02c-.02-.01-.03-.03-.03-.05-.03-.18-.1-.31-.22-.39-.11-.08-.25-.12-.42-.12-.13,0-.24,.04-.34,.11s-.15,.17-.15,.3c0,.12,.04,.21,.14,.29s.26,.15,.5,.23c.13,.04,.25,.08,.36,.13s.2,.11,.28,.18c.08,.07,.14,.15,.18,.25,.04,.1,.07,.22,.07,.36,0,.12-.02,.23-.06,.33s-.11,.2-.19,.28c-.09,.08-.2,.14-.33,.19-.13,.05-.29,.07-.47,.07-.14,0-.3-.02-.47-.05s-.33-.09-.47-.17c0-.12-.02-.24-.02-.36,0-.13,0-.25,0-.38h.07s.08,0,.11,.02c.03,.02,.05,.04,.05,.08,.02,.19,.09,.33,.22,.45,.13,.11,.3,.17,.53,.17,.18,0,.32-.04,.42-.12,.1-.08,.15-.19,.15-.33s-.05-.26-.16-.34c-.11-.08-.26-.15-.47-.21-.26-.08-.47-.18-.61-.31-.15-.13-.22-.32-.22-.56,0-.12,.02-.22,.07-.33,.04-.1,.11-.19,.19-.27,.08-.08,.18-.13,.29-.18s.24-.07,.38-.07c.18,0,.34,.02,.5,.07,.16,.05,.28,.1,.37,.15,0,.04,0,.08,.01,.13,0,.05,0,.1,0,.16s0,.11,0,.17c0,.06,0,.11,0,.15h-.15Z"/>
      <path class="cls-6" d="M50.49,23.31c.07-.17,.14-.34,.22-.52s.15-.35,.22-.51c.07-.16,.12-.3,.17-.43,.04-.13,.07-.22,.07-.29,0-.04-.02-.07-.05-.09-.04-.02-.07-.04-.12-.05s-.08-.03-.12-.05c-.04-.02-.05-.04-.05-.08,0,0,0-.02,0-.04,0-.02,0-.03,.01-.05,.17,.01,.36,.02,.55,.02,.1,0,.19,0,.27,0s.15,0,.21-.02c0,.01,.01,.03,.02,.05,0,.02,0,.03,0,.04,0,.05-.03,.08-.09,.09-.07,.01-.12,.03-.16,.04-.04,.01-.07,.03-.09,.05s-.05,.05-.07,.09c-.02,.04-.04,.09-.07,.15l-1.36,3.21c-.09,.21-.22,.38-.4,.5-.18,.12-.37,.19-.57,.19-.04,0-.06,0-.08-.03-.02-.02-.02-.04-.02-.07,0-.05,0-.1,.02-.16s.03-.11,.05-.15c.02-.05,.05-.08,.08-.11s.06-.04,.09-.04c.04,0,.07,0,.1,0,.03,0,.06,0,.1,0,.12,0,.21-.02,.27-.07,.06-.05,.11-.12,.15-.22l.34-.79-1.02-2.28c-.03-.06-.06-.11-.08-.15-.02-.04-.05-.07-.07-.09-.03-.02-.06-.04-.09-.05s-.08-.02-.14-.03c-.06-.01-.09-.05-.09-.1,0,0,0-.02,0-.04s0-.03,.02-.05c.09,0,.18,.01,.27,.02,.09,0,.19,0,.31,0h.19c.11,0,.21,0,.3,0s.19,0,.28-.02c0,.01,.01,.03,.02,.05,0,.02,0,.03,0,.04,0,.05-.03,.08-.09,.09-.1,.02-.17,.04-.21,.06-.04,.02-.05,.05-.05,.08,0,.02,.01,.08,.04,.17,.03,.09,.07,.2,.13,.33l.58,1.29Z"/>
      <path class="cls-6" d="M53.47,21.41c-.21,0-.38,.09-.51,.27-.13,.18-.2,.43-.2,.74,0,.43,.1,.76,.29,1,.19,.24,.45,.36,.77,.36,.14,0,.26-.02,.36-.07,.1-.04,.18-.09,.25-.13,.01,0,.03-.02,.05-.03,.02-.01,.04-.02,.05-.02,.02,0,.05,.02,.07,.05s.04,.06,.05,.07c-.04,.05-.1,.11-.17,.16-.07,.05-.15,.1-.24,.15-.09,.05-.2,.08-.33,.11-.13,.03-.27,.04-.43,.04-.18,0-.35-.03-.51-.09-.16-.06-.3-.15-.42-.27-.12-.12-.22-.27-.29-.45-.07-.18-.11-.39-.11-.63,0-.23,.04-.43,.13-.62,.09-.19,.2-.35,.33-.48s.29-.24,.45-.31c.17-.08,.33-.11,.49-.11s.31,.02,.45,.05c.13,.04,.25,.08,.34,.14s.17,.12,.22,.2c.05,.08,.08,.16,.08,.24,0,.03-.02,.05-.07,.07s-.09,.03-.15,.04-.11,.02-.16,.02c-.05,0-.08,0-.09,0-.06,0-.1-.03-.14-.08-.03-.05-.07-.11-.11-.18-.04-.06-.09-.12-.16-.18-.07-.05-.17-.08-.29-.08Z"/>
      <path class="cls-6" d="M56.05,21.81s.05-.05,.11-.12c.06-.07,.14-.15,.24-.23,.1-.08,.21-.15,.34-.22,.13-.06,.27-.1,.43-.1,.11,0,.21,.02,.3,.05,.1,.03,.18,.08,.26,.15,.07,.07,.13,.16,.18,.27,.04,.11,.07,.25,.07,.41v1.62c0,.07,.04,.12,.12,.15,.08,.03,.17,.06,.27,.08,.04,0,.05,.04,.05,.08,0,.03,0,.06-.01,.11-.12,0-.23-.02-.33-.02-.11,0-.23,0-.37,0-.12,0-.23,0-.35,0-.12,0-.23,.01-.35,.02,0-.04-.01-.08-.01-.11,0-.04,.02-.07,.06-.08,.04,0,.08-.01,.12-.03,.04-.01,.08-.03,.12-.05s.07-.04,.09-.06,.04-.05,.04-.09v-1.3c0-.11,0-.21-.02-.31-.01-.09-.04-.17-.08-.24-.04-.07-.09-.12-.15-.16-.06-.04-.15-.06-.25-.06-.11,0-.22,.02-.32,.06-.11,.04-.2,.09-.28,.17-.08,.07-.15,.16-.19,.27-.05,.11-.07,.23-.07,.37v1.21c0,.07,.04,.12,.11,.15s.16,.06,.25,.08c.04,0,.06,.04,.06,.08,0,.03,0,.06-.01,.11-.12,0-.23-.02-.34-.02-.11,0-.23,0-.36,0s-.25,0-.37,0c-.12,0-.23,.01-.34,.02,0-.04-.01-.08-.01-.11,0-.04,.02-.07,.05-.08,.1-.02,.19-.04,.27-.08,.08-.03,.12-.08,.12-.16v-3.57c0-.14-.03-.24-.08-.29-.05-.05-.16-.08-.32-.1-.06,0-.09-.04-.09-.09,0-.03,0-.06,.01-.09,.06,0,.14,0,.24,0s.2-.01,.28-.02c.1-.01,.19-.03,.28-.05s.14-.03,.17-.03c.04,0,.07,0,.08,.03,.01,.02,.02,.04,.02,.07,0,.08,0,.16-.02,.26-.01,.1-.02,.22-.02,.35v1.71Z"/>
      <path class="cls-6" d="M58.82,22.64c0-.2,.04-.4,.12-.58,.08-.18,.18-.34,.32-.47s.29-.24,.47-.32c.18-.08,.37-.12,.58-.12s.42,.04,.6,.11,.34,.17,.47,.3c.13,.13,.23,.29,.3,.47,.07,.18,.11,.38,.11,.6s-.04,.4-.12,.58c-.08,.18-.18,.34-.32,.47s-.29,.24-.47,.32c-.18,.08-.37,.12-.58,.12s-.42-.04-.6-.11c-.18-.07-.34-.17-.47-.3-.13-.13-.23-.28-.31-.46s-.11-.38-.11-.6Zm.62-.22c0,.16,.02,.33,.05,.5,.04,.17,.09,.33,.16,.47s.17,.25,.28,.35,.25,.14,.42,.14c.25,0,.45-.09,.59-.27s.21-.41,.21-.68c0-.16-.02-.34-.05-.51-.03-.18-.09-.34-.16-.49-.07-.15-.17-.27-.29-.37s-.26-.15-.44-.15c-.23,0-.42,.08-.57,.24-.14,.16-.22,.42-.22,.77Z"/>
      <path class="cls-6" d="M63.7,24.07c-.12,0-.23-.02-.35-.02s-.24,0-.36,0-.24,0-.37,0-.25,.01-.36,.02c0-.04-.01-.08-.01-.11,0-.04,.02-.07,.06-.08,.1-.02,.19-.04,.27-.08s.13-.08,.13-.16v-3.57c0-.14-.03-.24-.08-.29-.06-.05-.16-.08-.32-.1-.06,0-.09-.04-.09-.09,0-.03,0-.06,.01-.09,.06,0,.14,0,.24,0s.2-.01,.28-.02c.1-.01,.2-.03,.28-.05,.08-.02,.14-.03,.17-.03,.04,0,.07,0,.08,.03,.01,.02,.02,.04,.02,.07,0,.08,0,.16-.02,.26-.01,.1-.02,.22-.02,.35v3.55c0,.07,.04,.12,.12,.16s.17,.06,.28,.08c.04,0,.05,.04,.05,.08,0,.03,0,.06-.01,.11Z"/>
      <path class="cls-6" d="M64.12,22.64c0-.2,.04-.4,.12-.58,.08-.18,.18-.34,.32-.47s.29-.24,.47-.32c.18-.08,.37-.12,.58-.12s.42,.04,.6,.11,.34,.17,.47,.3c.13,.13,.23,.29,.3,.47,.07,.18,.11,.38,.11,.6s-.04,.4-.12,.58c-.08,.18-.18,.34-.32,.47s-.29,.24-.47,.32c-.18,.08-.37,.12-.58,.12s-.42-.04-.6-.11c-.18-.07-.34-.17-.47-.3-.13-.13-.23-.28-.31-.46s-.11-.38-.11-.6Zm.62-.22c0,.16,.02,.33,.05,.5,.04,.17,.09,.33,.16,.47s.17,.25,.28,.35,.25,.14,.42,.14c.25,0,.45-.09,.59-.27s.21-.41,.21-.68c0-.16-.02-.34-.05-.51-.03-.18-.09-.34-.16-.49-.07-.15-.17-.27-.29-.37s-.26-.15-.44-.15c-.23,0-.42,.08-.57,.24-.14,.16-.22,.42-.22,.77Z"/>
      <path class="cls-6" d="M67.94,23.9c-.19-.11-.29-.27-.29-.48,0-.22,.15-.4,.44-.54-.12-.08-.22-.18-.3-.3-.07-.13-.11-.28-.11-.47,0-.12,.03-.24,.09-.36,.06-.12,.14-.22,.24-.31,.1-.09,.22-.16,.35-.21,.13-.05,.27-.08,.42-.08,.22,0,.4,.03,.53,.08,.13,.05,.25,.12,.34,.2l.66-.29s.08,.07,.11,.12c.02,.05,.03,.1,.03,.14,0,.1-.03,.15-.1,.15h-.24c-.08,0-.19,0-.31,.03,.11,.14,.16,.3,.16,.5,0,.14-.03,.26-.09,.38-.06,.12-.15,.21-.25,.3-.11,.08-.23,.15-.38,.19-.15,.05-.3,.07-.46,.07-.09,0-.18,0-.27-.02-.08-.01-.16-.03-.24-.06-.12,.05-.2,.11-.24,.16-.04,.05-.07,.1-.07,.15,0,.04,.01,.07,.03,.1s.06,.06,.12,.09,.14,.04,.25,.06,.25,.02,.42,.02c.2,0,.39,.02,.56,.05,.18,.03,.33,.08,.47,.15,.13,.07,.24,.16,.32,.28,.08,.12,.12,.25,.12,.42,0,.18-.04,.34-.11,.49s-.17,.27-.31,.38c-.13,.1-.29,.18-.47,.24s-.38,.08-.6,.08c-.42,0-.74-.08-.98-.23-.23-.15-.35-.39-.35-.72,0-.1,.02-.19,.05-.27,.03-.08,.07-.16,.12-.22,.05-.07,.1-.12,.16-.17,.06-.05,.12-.09,.17-.12Zm.16,.08c-.11,.1-.17,.23-.18,.38,0,.04,0,.07,0,.11v.11c0,.09,.03,.19,.07,.28,.04,.09,.11,.17,.19,.25,.08,.07,.19,.13,.31,.17,.12,.04,.27,.07,.43,.07,.3,0,.53-.07,.67-.2s.21-.3,.21-.5c0-.08-.02-.16-.05-.23-.04-.07-.1-.13-.18-.18s-.19-.09-.33-.12c-.14-.03-.31-.04-.51-.04-.12,0-.23,0-.34-.02-.11-.01-.21-.04-.29-.07Zm.75-1.18c.16,0,.29-.05,.39-.16s.15-.25,.15-.44c0-.1-.01-.19-.03-.29-.02-.09-.05-.18-.1-.26-.05-.08-.11-.14-.2-.19-.08-.05-.18-.07-.31-.07-.16,0-.28,.05-.37,.15s-.14,.24-.14,.42c0,.1,0,.2,.03,.3,.02,.1,.05,.19,.1,.27,.05,.08,.11,.14,.19,.19,.08,.05,.17,.07,.29,.07Z"/>
      <path class="cls-6" d="M72.34,23.31c.07-.17,.14-.34,.22-.52s.15-.35,.22-.51c.07-.16,.12-.3,.17-.43,.04-.13,.07-.22,.07-.29,0-.04-.02-.07-.05-.09-.04-.02-.07-.04-.12-.05s-.08-.03-.12-.05c-.04-.02-.05-.04-.05-.08,0,0,0-.02,0-.04,0-.02,0-.03,.01-.05,.17,.01,.36,.02,.55,.02,.1,0,.19,0,.27,0s.15,0,.21-.02c0,.01,.01,.03,.02,.05,0,.02,0,.03,0,.04,0,.05-.03,.08-.09,.09-.07,.01-.12,.03-.16,.04-.04,.01-.07,.03-.09,.05s-.05,.05-.07,.09c-.02,.04-.04,.09-.07,.15l-1.36,3.21c-.09,.21-.22,.38-.4,.5-.18,.12-.37,.19-.57,.19-.04,0-.06,0-.08-.03-.02-.02-.02-.04-.02-.07,0-.05,0-.1,.02-.16s.03-.11,.05-.15c.02-.05,.05-.08,.08-.11s.06-.04,.09-.04c.04,0,.07,0,.1,0,.03,0,.06,0,.1,0,.12,0,.21-.02,.27-.07,.06-.05,.11-.12,.15-.22l.34-.79-1.02-2.28c-.03-.06-.06-.11-.08-.15-.02-.04-.05-.07-.07-.09-.03-.02-.06-.04-.09-.05s-.08-.02-.14-.03c-.06-.01-.09-.05-.09-.1,0,0,0-.02,0-.04s0-.03,.02-.05c.09,0,.18,.01,.27,.02,.09,0,.19,0,.31,0h.19c.11,0,.21,0,.3,0s.19,0,.28-.02c0,.01,.01,.03,.02,.05,0,.02,0,.03,0,.04,0,.05-.03,.08-.09,.09-.1,.02-.17,.04-.21,.06-.04,.02-.05,.05-.05,.08,0,.02,.01,.08,.04,.17,.03,.09,.07,.2,.13,.33l.58,1.29Z"/>
      <path class="cls-6" d="M46.8,26.82s.02-.04,.03-.05c.01-.02,.03-.03,.06-.04s.06-.02,.11-.02,.11,0,.19,0c.04,0,.08,0,.14,0,.06,0,.12,0,.19,0s.13,0,.2,0c.07,0,.13,0,.19-.01,0,.04,.01,.08,.01,.11,0,.07-.02,.11-.07,.11-.16,.02-.27,.05-.32,.09-.05,.04-.08,.09-.08,.15,0,0,0,.06,.01,.18,0,.11,.02,.3,.03,.56,.01,.26,.03,.61,.05,1.05,.02,.44,.04,.98,.07,1.63,0,.08,.03,.15,.09,.19,.05,.04,.16,.07,.33,.1,.02,0,.04,.02,.05,.04,.01,.02,.02,.04,.02,.07s0,.06-.01,.11c-.16,0-.3-.02-.42-.02s-.24,0-.35,0c-.04,0-.1,0-.17,0-.07,0-.14,0-.21,0-.07,0-.15,0-.22,0-.07,0-.13,0-.19,.01,0-.04-.01-.08-.01-.11,0-.07,.02-.11,.07-.11,.18-.04,.3-.07,.36-.11,.06-.04,.1-.1,.1-.18,0-.01,0-.09,0-.25,0-.15-.02-.33-.03-.55-.01-.22-.02-.45-.03-.7-.01-.25-.02-.49-.03-.71-.01-.22-.02-.42-.03-.58,0-.16-.01-.26-.01-.3l-1.45,3.51s-.03,.07-.05,.09-.04,.03-.06,.03c-.03,0-.05,0-.06,0l-1.63-3.73s0,.15-.02,.32c0,.17-.02,.37-.03,.61-.01,.24-.02,.48-.04,.74-.01,.26-.03,.5-.04,.72s-.02,.41-.03,.56,0,.23,0,.24c0,.14,.15,.23,.45,.29,.04,0,.07,.04,.07,.11,0,.03,0,.06-.01,.11-.12,0-.24-.02-.35-.02s-.22,0-.31,0c-.07,0-.17,0-.29,0s-.23,.01-.34,.02c0-.04-.01-.08-.01-.11,0-.06,.02-.1,.07-.11,.12-.02,.22-.05,.29-.1,.07-.04,.11-.11,.12-.19,0-.04,0-.15,.01-.33s.02-.4,.03-.65c.01-.25,.02-.52,.04-.8,.01-.28,.03-.55,.04-.79s.02-.44,.03-.6c0-.16,.01-.24,.01-.24,0-.07-.03-.12-.08-.16-.06-.03-.16-.06-.32-.09-.04,0-.07-.04-.07-.11,0-.03,0-.06,.01-.11,.06,0,.12,0,.2,.01,.07,0,.15,0,.22,0s.14,0,.21,0c.07,0,.12,0,.16,0,.08,0,.14,0,.19,0s.08,.01,.11,.02,.04,.02,.06,.04c.01,.02,.02,.04,.03,.05l1.42,3.31,1.35-3.31Z"/>
      <path class="cls-6" d="M49.33,31.01c-.08,0-.15,0-.23,0-.08,0-.15,0-.22,.01-.07,0-.12,0-.17,.01-.05,0-.08,0-.09,0,0,0,0-.02,0-.05,0-.03,0-.05,0-.06,0-.04,.02-.07,.06-.08,.11-.02,.21-.05,.28-.08,.07-.03,.11-.08,.11-.15v-1.81c0-.13-.02-.23-.07-.29-.05-.06-.15-.09-.3-.11-.06,0-.09-.04-.09-.09,0-.02,0-.05,.01-.09,.06,0,.14,0,.24,0,.1,0,.19-.01,.26-.02,.1-.02,.19-.04,.28-.06,.08-.02,.14-.03,.17-.03,.06,0,.09,.03,.09,.1,0,.06,0,.14-.02,.22-.01,.09-.02,.2-.02,.34v1.83c0,.07,.03,.12,.1,.15,.07,.03,.16,.06,.29,.08,.04,0,.05,.04,.05,.08,0,.01,0,.03,0,.06,0,.03,0,.04,0,.05-.01,0-.04,0-.09,0-.05,0-.1,0-.17-.01-.07,0-.14,0-.22-.01-.08,0-.16,0-.23,0Zm-.39-3.99c0-.11,.04-.2,.11-.28,.07-.08,.17-.12,.28-.12,.11,0,.19,.04,.27,.12,.07,.08,.11,.17,.11,.28,0,.12-.04,.21-.11,.28-.07,.07-.16,.11-.27,.11-.11,0-.2-.04-.28-.11-.07-.07-.11-.16-.11-.28Z"/>
      <path class="cls-6" d="M53.34,30.63c0,.07,.04,.12,.12,.15,.08,.03,.17,.06,.27,.08,.04,0,.06,.04,.06,.08,0,.03,0,.06-.01,.11-.12,0-.23-.02-.34-.02-.11,0-.23,0-.36,0-.12,0-.24,0-.36,0s-.23,.01-.35,.02c0-.04-.01-.08-.01-.11,0-.04,.02-.07,.06-.08,.09-.02,.18-.04,.25-.08s.11-.08,.11-.15v-1.3c0-.11,0-.21-.02-.31-.01-.09-.04-.17-.08-.24-.04-.07-.09-.12-.15-.16-.06-.04-.15-.06-.25-.06-.11,0-.22,.02-.32,.06-.11,.04-.2,.09-.28,.17-.08,.07-.15,.16-.19,.27-.05,.11-.07,.23-.07,.37v1.21c0,.07,.04,.12,.12,.15s.16,.06,.25,.08c.04,0,.06,.04,.06,.08,0,.03,0,.06-.01,.11-.12,0-.23-.02-.34-.02-.11,0-.23,0-.35,0s-.25,0-.37,0-.23,.01-.34,.02c0-.04-.01-.08-.01-.11,0-.04,.02-.07,.06-.08,.1-.02,.19-.04,.27-.08,.08-.03,.12-.08,.12-.16v-1.81c0-.13-.02-.23-.07-.29-.05-.06-.15-.09-.3-.11-.06,0-.09-.04-.09-.09,0-.02,0-.05,.01-.09,.06,0,.14,0,.24,0,.1,0,.19-.01,.26-.02,.1-.02,.19-.04,.28-.06,.08-.02,.14-.03,.17-.03,.06,0,.09,.03,.09,.1,0,.06,0,.14-.02,.22-.01,.09-.02,.2-.02,.34,.19-.21,.37-.38,.55-.49,.17-.12,.37-.17,.57-.17,.27,0,.47,.08,.61,.24,.13,.16,.2,.38,.2,.65v1.61Z"/>
      <path class="cls-6" d="M56.96,30.42c0,.05,0,.1,.01,.14,0,.04,.03,.07,.05,.1,.03,.03,.06,.05,.11,.06,.05,.02,.11,.03,.18,.04,.06,0,.09,.04,.09,.09,0,.03,0,.06-.01,.09-.06,0-.13,0-.23,.01-.1,0-.18,.01-.24,.02-.1,.02-.19,.04-.26,.06-.07,.02-.13,.03-.16,.03-.06,0-.09-.03-.09-.1v-.5c-.06,.08-.12,.17-.19,.24-.06,.08-.13,.15-.22,.21s-.18,.11-.28,.14-.24,.05-.39,.05-.29-.03-.43-.09c-.14-.06-.26-.15-.37-.28-.11-.12-.19-.27-.25-.45-.06-.18-.1-.38-.1-.6,0-.24,.05-.46,.14-.65,.09-.19,.21-.35,.34-.49,.14-.13,.29-.23,.45-.3,.16-.07,.31-.1,.45-.1,.17,0,.32,.02,.45,.05,.13,.03,.26,.08,.39,.13v-1.25c0-.13-.02-.23-.07-.28-.05-.05-.15-.09-.3-.1-.06,0-.09-.04-.09-.09,0-.03,0-.06,.01-.09,.06,0,.14,0,.24,0,.1,0,.19-.01,.26-.02,.1-.01,.2-.03,.28-.05,.08-.02,.14-.03,.17-.03,.06,0,.09,.03,.09,.1,0,.08,0,.16-.02,.26-.01,.1-.02,.22-.02,.36v3.34Zm-.56-1.68c-.11-.11-.23-.21-.37-.27s-.28-.1-.45-.1c-.26,0-.45,.11-.58,.32-.13,.21-.2,.48-.2,.82,0,.17,.02,.33,.06,.48,.04,.15,.09,.29,.17,.4s.16,.21,.27,.27c.1,.07,.22,.1,.35,.1,.09,0,.18-.03,.27-.08s.17-.12,.24-.2,.13-.17,.18-.28c.05-.1,.07-.21,.07-.31v-1.15Z"/>
      <path class="cls-6" d="M58.22,28.49h-.4v-.12s.02-.08,.06-.09,.09-.02,.14-.03c.05,0,.09-.02,.14-.05s.06-.08,.06-.16v-.31c0-.24,.03-.45,.1-.62s.16-.32,.26-.43c.11-.11,.22-.2,.35-.25,.13-.05,.26-.08,.38-.08,.15,0,.28,.01,.4,.04,.12,.03,.22,.07,.3,.12s.15,.1,.2,.16,.07,.12,.07,.18c0,.03-.02,.05-.06,.08-.04,.02-.08,.05-.13,.06-.05,.02-.09,.03-.14,.04-.04,0-.08,.01-.09,.01-.06,0-.11-.03-.14-.08-.05-.1-.11-.18-.18-.26-.07-.08-.17-.11-.31-.11-.16,0-.28,.07-.36,.2-.08,.13-.12,.32-.12,.56v.84h.78c0,.09,0,.16-.02,.21-.01,.05-.05,.07-.11,.07h-.65v2.03c0,.12,.05,.19,.15,.24s.27,.07,.5,.1c.05,0,.07,.04,.07,.09,0,.01,0,.03,0,.06,0,.03,0,.04,0,.05-.01,0-.05,0-.12,0-.06,0-.14,0-.23-.01-.09,0-.18,0-.29-.01-.1,0-.2,0-.29,0-.08,0-.15,0-.23,0-.08,0-.15,0-.22,.01-.07,0-.13,0-.18,.01-.05,0-.08,0-.1,0,0,0,0-.02,0-.05,0-.03,0-.05,0-.06,0-.04,.02-.07,.06-.08,.1-.02,.18-.04,.24-.08,.06-.03,.09-.08,.09-.16v-2.14Z"/>
      <path class="cls-6" d="M60.22,28.82c0-.15-.02-.24-.06-.3-.04-.05-.14-.08-.29-.1-.06,0-.09-.04-.09-.09,0-.03,0-.06,.01-.09,.06,0,.13,0,.23,0,.1,0,.18-.02,.24-.03,.1-.01,.18-.03,.25-.05,.07-.02,.13-.03,.16-.03,.06,0,.09,.03,.09,.1v1.66c0,.11,0,.21,.02,.31,.01,.09,.04,.17,.07,.24,.04,.07,.09,.12,.15,.16,.07,.04,.15,.06,.25,.06,.11,0,.22-.02,.33-.06,.11-.04,.2-.09,.28-.17s.15-.16,.2-.27c.05-.11,.07-.23,.07-.37v-.97c0-.14-.02-.24-.06-.29-.04-.05-.14-.09-.29-.1-.06,0-.09-.04-.09-.09,0-.03,0-.06,.01-.09,.06,0,.13,0,.23,0,.1,0,.18-.02,.25-.03,.1-.01,.18-.03,.26-.05,.07-.02,.13-.03,.16-.03,.06,0,.09,.03,.09,.1v2.16c0,.08,0,.14,.01,.18,0,.05,.03,.08,.05,.11,.03,.03,.06,.05,.11,.07,.05,.02,.11,.03,.18,.03,.06,0,.09,.04,.09,.09,0,.03,0,.06-.01,.09-.08,0-.17,0-.27,.02s-.18,.03-.27,.04c-.09,.01-.16,.03-.23,.04-.06,.01-.11,.02-.14,.02-.06,0-.09-.03-.09-.1v-.55s-.05,.05-.11,.13c-.06,.07-.14,.15-.24,.23s-.21,.15-.35,.22c-.13,.06-.27,.1-.42,.1-.27,0-.47-.08-.61-.23-.13-.16-.2-.37-.2-.66v-1.38Z"/>
      <path class="cls-6" d="M65.02,31.04c-.12,0-.23-.02-.35-.02s-.24,0-.36,0-.24,0-.37,0-.25,.01-.36,.02c0-.04-.01-.08-.01-.11,0-.04,.02-.07,.06-.08,.1-.02,.19-.04,.27-.08s.13-.08,.13-.16v-3.57c0-.14-.03-.24-.08-.29-.06-.05-.16-.08-.32-.1-.06,0-.09-.04-.09-.09,0-.03,0-.06,.01-.09,.06,0,.14,0,.24,0s.2-.01,.28-.02c.1-.01,.2-.03,.28-.05,.08-.02,.14-.03,.17-.03,.04,0,.07,0,.08,.03,.01,.02,.02,.04,.02,.07,0,.08,0,.16-.02,.26-.01,.1-.02,.22-.02,.35v3.55c0,.07,.04,.12,.12,.16s.17,.06,.28,.08c.04,0,.05,.04,.05,.08,0,.03,0,.06-.01,.11Z"/>
      <path class="cls-6" d="M68.35,30.63c0,.07,.04,.12,.12,.15,.08,.03,.17,.06,.27,.08,.04,0,.06,.04,.06,.08,0,.03,0,.06-.01,.11-.12,0-.23-.02-.34-.02-.11,0-.23,0-.36,0-.12,0-.24,0-.36,0s-.23,.01-.35,.02c0-.04-.01-.08-.01-.11,0-.04,.02-.07,.06-.08,.09-.02,.18-.04,.25-.08s.11-.08,.11-.15v-1.3c0-.11,0-.21-.02-.31-.01-.09-.04-.17-.08-.24-.04-.07-.09-.12-.15-.16-.06-.04-.15-.06-.25-.06-.11,0-.22,.02-.32,.06-.11,.04-.2,.09-.28,.17-.08,.07-.15,.16-.19,.27-.05,.11-.07,.23-.07,.37v1.21c0,.07,.04,.12,.12,.15s.16,.06,.25,.08c.04,0,.06,.04,.06,.08,0,.03,0,.06-.01,.11-.12,0-.23-.02-.34-.02-.11,0-.23,0-.35,0s-.25,0-.37,0-.23,.01-.34,.02c0-.04-.01-.08-.01-.11,0-.04,.02-.07,.06-.08,.1-.02,.19-.04,.27-.08,.08-.03,.12-.08,.12-.16v-1.81c0-.13-.02-.23-.07-.29-.05-.06-.15-.09-.3-.11-.06,0-.09-.04-.09-.09,0-.02,0-.05,.01-.09,.06,0,.14,0,.24,0,.1,0,.19-.01,.26-.02,.1-.02,.19-.04,.28-.06,.08-.02,.14-.03,.17-.03,.06,0,.09,.03,.09,.1,0,.06,0,.14-.02,.22-.01,.09-.02,.2-.02,.34,.19-.21,.37-.38,.55-.49,.17-.12,.37-.17,.57-.17,.27,0,.47,.08,.61,.24,.13,.16,.2,.38,.2,.65v1.61Z"/>
      <path class="cls-6" d="M71.59,30.39s.06-.05,.1-.05c.04,0,.09,.04,.13,.11-.06,.08-.12,.16-.2,.23s-.17,.14-.27,.2c-.1,.06-.22,.11-.35,.14s-.29,.05-.46,.05-.34-.03-.5-.09c-.16-.06-.3-.15-.42-.27-.12-.12-.22-.27-.29-.44-.07-.18-.11-.39-.11-.62,0-.23,.04-.43,.13-.62s.2-.35,.33-.49c.14-.13,.29-.24,.46-.32,.17-.08,.33-.11,.48-.11,.41,0,.71,.12,.9,.36,.19,.24,.28,.55,.28,.94,0,.03-.01,.04-.04,.04l-1.92,.09c0,.17,.02,.33,.07,.48,.05,.15,.12,.27,.21,.38,.09,.11,.2,.19,.32,.25s.27,.09,.43,.09c.14,0,.28-.03,.41-.1s.24-.15,.33-.25Zm-1.07-2.03c-.22,0-.39,.09-.52,.26-.12,.17-.18,.4-.18,.68l1.25-.06c.07,0,.1-.03,.1-.09,0-.08-.01-.17-.04-.27s-.07-.18-.12-.26-.12-.14-.2-.19c-.08-.05-.18-.08-.29-.08Z"/>
      <path class="cls-6" d="M74.08,28.94s-.06,0-.08-.02c-.02-.01-.03-.03-.03-.05-.03-.18-.1-.31-.22-.39-.11-.08-.25-.12-.42-.12-.13,0-.24,.04-.34,.11s-.15,.17-.15,.3c0,.12,.04,.21,.14,.29s.26,.15,.5,.23c.13,.04,.25,.08,.36,.13s.2,.11,.28,.18c.08,.07,.14,.15,.18,.25,.04,.1,.07,.22,.07,.36,0,.12-.02,.23-.06,.33s-.11,.2-.19,.28c-.09,.08-.2,.14-.33,.19-.13,.05-.29,.07-.47,.07-.14,0-.3-.02-.47-.05s-.33-.09-.47-.17c0-.12-.02-.24-.02-.36,0-.13,0-.25,0-.38h.07s.08,0,.11,.02c.03,.02,.05,.04,.05,.08,.02,.19,.09,.33,.22,.45,.13,.11,.3,.17,.53,.17,.18,0,.32-.04,.42-.12,.1-.08,.15-.19,.15-.33s-.05-.26-.16-.34c-.11-.08-.26-.15-.47-.21-.26-.08-.47-.18-.61-.31-.15-.13-.22-.32-.22-.56,0-.12,.02-.22,.07-.33,.04-.1,.11-.19,.19-.27,.08-.08,.18-.13,.29-.18s.24-.07,.38-.07c.18,0,.34,.02,.5,.07,.16,.05,.28,.1,.37,.15,0,.04,0,.08,.01,.13,0,.05,0,.1,0,.16s0,.11,0,.17c0,.06,0,.11,0,.15h-.15Z"/>
      <path class="cls-6" d="M76.65,28.94s-.06,0-.08-.02c-.02-.01-.03-.03-.03-.05-.03-.18-.1-.31-.22-.39-.11-.08-.25-.12-.42-.12-.13,0-.24,.04-.34,.11s-.15,.17-.15,.3c0,.12,.04,.21,.14,.29s.26,.15,.5,.23c.13,.04,.25,.08,.36,.13s.2,.11,.28,.18c.08,.07,.14,.15,.18,.25,.04,.1,.07,.22,.07,.36,0,.12-.02,.23-.06,.33s-.11,.2-.19,.28c-.09,.08-.2,.14-.33,.19-.13,.05-.29,.07-.47,.07-.14,0-.3-.02-.47-.05s-.33-.09-.47-.17c0-.12-.02-.24-.02-.36,0-.13,0-.25,0-.38h.07s.08,0,.11,.02c.03,.02,.05,.04,.05,.08,.02,.19,.09,.33,.22,.45,.13,.11,.3,.17,.53,.17,.18,0,.32-.04,.42-.12,.1-.08,.15-.19,.15-.33s-.05-.26-.16-.34c-.11-.08-.26-.15-.47-.21-.26-.08-.47-.18-.61-.31-.15-.13-.22-.32-.22-.56,0-.12,.02-.22,.07-.33,.04-.1,.11-.19,.19-.27,.08-.08,.18-.13,.29-.18s.24-.07,.38-.07c.18,0,.34,.02,.5,.07,.16,.05,.28,.1,.37,.15,0,.04,0,.08,.01,.13,0,.05,0,.1,0,.16s0,.11,0,.17c0,.06,0,.11,0,.15h-.15Z"/>
      <path class="cls-6" d="M46.15,36.93v-2.78c0-.1-.04-.17-.11-.21-.07-.04-.19-.07-.36-.09-.05,0-.07-.04-.07-.11,0-.03,0-.06,.01-.11,.11,0,.22,.02,.34,.02s.22,0,.33,0,.2,0,.31,0,.21-.01,.31-.02c0,.04,.01,.08,.01,.11,0,.07-.02,.11-.07,.11-.15,.02-.25,.05-.31,.09-.06,.04-.08,.1-.08,.19v3.91s-.02,0-.05,0c-.02,0-.04,0-.05,0-.03,0-.06,0-.09-.02-.03-.02-.06-.05-.09-.1l-2.7-3.55v3.13c0,.09,.03,.15,.09,.19,.06,.04,.18,.07,.36,.1,.04,0,.07,.04,.07,.11,0,.03,0,.06-.01,.11-.11,0-.22-.02-.33-.02s-.22,0-.32,0c-.09,0-.19,0-.31,0-.12,0-.23,.01-.33,.02,0-.04-.01-.08-.01-.11,0-.06,.02-.1,.07-.11,.16-.03,.27-.06,.32-.1,.06-.04,.08-.1,.08-.19v-3.41c0-.07-.03-.12-.08-.16-.05-.04-.16-.07-.32-.09-.05,0-.07-.05-.07-.11,0-.02,0-.04,0-.06,0-.01,0-.03,0-.05,.09,0,.17,.02,.25,.02,.07,0,.15,0,.23,.01,.08,0,.15,0,.21,0,.13,0,.21,0,.26,.01s.08,.03,.1,.07l2.38,3.18Z"/>
      <path class="cls-6" d="M49.83,37.37s.06-.05,.1-.05c.04,0,.09,.04,.13,.11-.06,.08-.12,.16-.2,.23s-.17,.14-.27,.2c-.1,.06-.22,.11-.35,.14s-.29,.05-.46,.05-.34-.03-.5-.09c-.16-.06-.3-.15-.42-.27-.12-.12-.22-.27-.29-.44-.07-.18-.11-.39-.11-.62,0-.23,.04-.43,.13-.62s.2-.35,.33-.49c.14-.13,.29-.24,.46-.32,.17-.08,.33-.11,.48-.11,.41,0,.71,.12,.9,.36,.19,.24,.28,.55,.28,.94,0,.03-.01,.04-.04,.04l-1.92,.09c0,.17,.02,.33,.07,.48,.05,.15,.12,.27,.21,.38,.09,.11,.2,.19,.32,.25s.27,.09,.43,.09c.14,0,.28-.03,.41-.1s.24-.15,.33-.25Zm-1.07-2.03c-.22,0-.39,.09-.52,.26-.12,.17-.18,.4-.18,.68l1.25-.06c.07,0,.1-.03,.1-.09,0-.08-.01-.17-.04-.27s-.07-.18-.12-.26-.12-.14-.2-.19c-.08-.05-.18-.08-.29-.08Z"/>
      <path class="cls-6" d="M50.88,35.79c0-.15-.02-.24-.06-.3-.04-.05-.14-.08-.29-.1-.06,0-.09-.04-.09-.09,0-.03,0-.06,.01-.09,.06,0,.13,0,.23,0,.1,0,.18-.02,.24-.03,.1-.01,.18-.03,.25-.05,.07-.02,.13-.03,.16-.03,.06,0,.09,.03,.09,.1v1.66c0,.11,0,.21,.02,.31,.01,.09,.04,.17,.07,.24,.04,.07,.09,.12,.15,.16,.07,.04,.15,.06,.25,.06,.11,0,.22-.02,.33-.06,.11-.04,.2-.09,.28-.17s.15-.16,.2-.27c.05-.11,.07-.23,.07-.37v-.97c0-.14-.02-.24-.06-.29-.04-.05-.14-.09-.29-.1-.06,0-.09-.04-.09-.09,0-.03,0-.06,.01-.09,.06,0,.13,0,.23,0,.1,0,.18-.02,.25-.03,.1-.01,.18-.03,.26-.05,.07-.02,.13-.03,.16-.03,.06,0,.09,.03,.09,.1v2.16c0,.08,0,.14,.01,.18,0,.05,.03,.08,.05,.11,.03,.03,.06,.05,.11,.07,.05,.02,.11,.03,.18,.03,.06,0,.09,.04,.09,.09,0,.03,0,.06-.01,.09-.08,0-.17,0-.27,.02s-.18,.03-.27,.04c-.09,.01-.16,.03-.23,.04-.06,.01-.11,.02-.14,.02-.06,0-.09-.03-.09-.1v-.55s-.05,.05-.11,.13c-.06,.07-.14,.15-.24,.23s-.21,.15-.35,.22c-.13,.06-.27,.1-.42,.1-.27,0-.47-.08-.61-.23-.13-.16-.2-.37-.2-.66v-1.38Z"/>
      <path class="cls-6" d="M56.13,35.11c.13,0,.22,.03,.29,.09s.09,.13,.09,.21c0,.03,0,.05-.01,.07,0,.02-.03,.05-.06,.07s-.08,.05-.14,.09-.14,.07-.25,.12c-.04-.05-.09-.09-.14-.13s-.12-.05-.18-.05c-.08,0-.14,.02-.21,.06-.06,.04-.12,.1-.16,.17s-.08,.16-.1,.25c-.02,.1-.04,.19-.04,.3v1.14c0,.1,.05,.17,.15,.22,.1,.05,.25,.08,.44,.11,.04,0,.07,.04,.07,.08,0,.03,0,.06-.01,.11-.05,0-.11,0-.18,0-.07,0-.15,0-.23,0-.08,0-.16,0-.25-.01-.08,0-.16,0-.23,0-.12,0-.25,0-.38,0s-.25,.01-.37,.02c0-.04-.01-.08-.01-.11,0-.04,.02-.07,.06-.08,.1-.02,.19-.04,.27-.08s.12-.09,.12-.15v-1.69c0-.09,0-.17-.02-.23-.01-.06-.03-.11-.06-.15-.03-.04-.07-.06-.12-.08-.05-.02-.12-.03-.2-.04-.06,0-.09-.04-.09-.09,0-.03,0-.06,.01-.09,.06,0,.14,0,.24,0,.1,0,.19-.01,.26-.02,.1-.02,.19-.04,.26-.06,.07-.02,.13-.03,.17-.03,.06,0,.09,.03,.09,.1v.44c.14-.15,.28-.28,.43-.39,.14-.1,.31-.16,.49-.16Z"/>
      <path class="cls-6" d="M56.75,36.58c0-.2,.04-.4,.12-.58,.08-.18,.18-.34,.32-.47s.29-.24,.47-.32c.18-.08,.37-.12,.58-.12s.42,.04,.6,.11,.34,.17,.47,.3c.13,.13,.23,.29,.3,.47,.07,.18,.11,.38,.11,.6s-.04,.4-.12,.58c-.08,.18-.18,.34-.32,.47s-.29,.24-.47,.32c-.18,.08-.37,.12-.58,.12s-.42-.04-.6-.11c-.18-.07-.34-.17-.47-.3-.13-.13-.23-.28-.31-.46s-.11-.38-.11-.6Zm.62-.22c0,.16,.02,.33,.05,.5,.04,.17,.09,.33,.16,.47s.17,.25,.28,.35,.25,.14,.42,.14c.25,0,.45-.09,.59-.27s.21-.41,.21-.68c0-.16-.02-.34-.05-.51-.03-.18-.09-.34-.16-.49-.07-.15-.17-.27-.29-.37s-.26-.15-.44-.15c-.23,0-.42,.08-.57,.24-.14,.16-.22,.42-.22,.77Z"/>
      <path class="cls-6" d="M61.98,35.92s-.06,0-.08-.02c-.02-.01-.03-.03-.03-.05-.03-.18-.1-.31-.22-.39-.11-.08-.25-.12-.42-.12-.13,0-.24,.04-.34,.11s-.15,.17-.15,.3c0,.12,.04,.21,.14,.29s.26,.15,.5,.23c.13,.04,.25,.08,.36,.13s.2,.11,.28,.18c.08,.07,.14,.15,.18,.25,.04,.1,.07,.22,.07,.36,0,.12-.02,.23-.06,.33s-.11,.2-.19,.28c-.09,.08-.2,.14-.33,.19-.13,.05-.29,.07-.47,.07-.14,0-.3-.02-.47-.05s-.33-.09-.47-.17c0-.12-.02-.24-.02-.36,0-.13,0-.25,0-.38h.07s.08,0,.11,.02c.03,.02,.05,.04,.05,.08,.02,.19,.09,.33,.22,.45,.13,.11,.3,.17,.53,.17,.18,0,.32-.04,.42-.12,.1-.08,.15-.19,.15-.33s-.05-.26-.16-.34c-.11-.08-.26-.15-.47-.21-.26-.08-.47-.18-.61-.31-.15-.13-.22-.32-.22-.56,0-.12,.02-.22,.07-.33,.04-.1,.11-.19,.19-.27,.08-.08,.18-.13,.29-.18s.24-.07,.38-.07c.18,0,.34,.02,.5,.07,.16,.05,.28,.1,.37,.15,0,.04,0,.08,.01,.13,0,.05,0,.1,0,.16s0,.11,0,.17c0,.06,0,.11,0,.15h-.15Z"/>
      <path class="cls-6" d="M64.08,35.35c-.21,0-.38,.09-.51,.27-.13,.18-.2,.43-.2,.74,0,.43,.1,.76,.29,1,.19,.24,.45,.36,.77,.36,.14,0,.26-.02,.36-.07,.1-.04,.18-.09,.25-.13,.01,0,.03-.02,.05-.03,.02-.01,.04-.02,.05-.02,.02,0,.05,.02,.07,.05s.04,.06,.05,.07c-.04,.05-.1,.11-.17,.16-.07,.05-.15,.1-.24,.15-.09,.05-.2,.08-.33,.11-.13,.03-.27,.04-.43,.04-.18,0-.35-.03-.51-.09-.16-.06-.3-.15-.42-.27-.12-.12-.22-.27-.29-.45-.07-.18-.11-.39-.11-.63,0-.23,.04-.43,.13-.62,.09-.19,.2-.35,.33-.48s.29-.24,.45-.31c.17-.08,.33-.11,.49-.11s.31,.02,.45,.05c.13,.04,.25,.08,.34,.14s.17,.12,.22,.2c.05,.08,.08,.16,.08,.24,0,.03-.02,.05-.07,.07s-.09,.03-.15,.04-.11,.02-.16,.02c-.05,0-.08,0-.09,0-.06,0-.1-.03-.14-.08-.03-.05-.07-.11-.11-.18-.04-.06-.09-.12-.16-.18-.07-.05-.17-.08-.29-.08Z"/>
      <path class="cls-6" d="M66.35,37.98c-.08,0-.15,0-.23,0-.08,0-.15,0-.22,.01-.07,0-.12,0-.17,.01-.05,0-.08,0-.09,0,0,0,0-.02,0-.05,0-.03,0-.05,0-.06,0-.04,.02-.07,.06-.08,.11-.02,.21-.05,.28-.08,.07-.03,.11-.08,.11-.15v-1.81c0-.13-.02-.23-.07-.29-.05-.06-.15-.09-.3-.11-.06,0-.09-.04-.09-.09,0-.02,0-.05,.01-.09,.06,0,.14,0,.24,0,.1,0,.19-.01,.26-.02,.1-.02,.19-.04,.28-.06,.08-.02,.14-.03,.17-.03,.06,0,.09,.03,.09,.1,0,.06,0,.14-.02,.22-.01,.09-.02,.2-.02,.34v1.83c0,.07,.03,.12,.1,.15,.07,.03,.16,.06,.29,.08,.04,0,.05,.04,.05,.08,0,.01,0,.03,0,.06,0,.03,0,.04,0,.05-.01,0-.04,0-.09,0-.05,0-.1,0-.17-.01-.07,0-.14,0-.22-.01-.08,0-.16,0-.23,0Zm-.39-3.99c0-.11,.04-.2,.11-.28,.07-.08,.17-.12,.28-.12,.11,0,.19,.04,.27,.12,.07,.08,.11,.17,.11,.28,0,.12-.04,.21-.11,.28-.07,.07-.16,.11-.27,.11-.11,0-.2-.04-.28-.11-.07-.07-.11-.16-.11-.28Z"/>
      <path class="cls-6" d="M69.85,37.37s.06-.05,.1-.05c.04,0,.09,.04,.13,.11-.06,.08-.12,.16-.2,.23s-.17,.14-.27,.2c-.1,.06-.22,.11-.35,.14s-.29,.05-.46,.05-.34-.03-.5-.09c-.16-.06-.3-.15-.42-.27-.12-.12-.22-.27-.29-.44-.07-.18-.11-.39-.11-.62,0-.23,.04-.43,.13-.62s.2-.35,.33-.49c.14-.13,.29-.24,.46-.32,.17-.08,.33-.11,.48-.11,.41,0,.71,.12,.9,.36,.19,.24,.28,.55,.28,.94,0,.03-.01,.04-.04,.04l-1.92,.09c0,.17,.02,.33,.07,.48,.05,.15,.12,.27,.21,.38,.09,.11,.2,.19,.32,.25s.27,.09,.43,.09c.14,0,.28-.03,.41-.1s.24-.15,.33-.25Zm-1.07-2.03c-.22,0-.39,.09-.52,.26-.12,.17-.18,.4-.18,.68l1.25-.06c.07,0,.1-.03,.1-.09,0-.08-.01-.17-.04-.27s-.07-.18-.12-.26-.12-.14-.2-.19c-.08-.05-.18-.08-.29-.08Z"/>
      <path class="cls-6" d="M73.45,37.6c0,.07,.04,.12,.12,.15,.08,.03,.17,.06,.27,.08,.04,0,.06,.04,.06,.08,0,.03,0,.06-.01,.11-.12,0-.23-.02-.34-.02-.11,0-.23,0-.36,0-.12,0-.24,0-.36,0s-.23,.01-.35,.02c0-.04-.01-.08-.01-.11,0-.04,.02-.07,.06-.08,.09-.02,.18-.04,.25-.08s.11-.08,.11-.15v-1.3c0-.11,0-.21-.02-.31-.01-.09-.04-.17-.08-.24-.04-.07-.09-.12-.15-.16-.06-.04-.15-.06-.25-.06-.11,0-.22,.02-.32,.06-.11,.04-.2,.09-.28,.17-.08,.07-.15,.16-.19,.27-.05,.11-.07,.23-.07,.37v1.21c0,.07,.04,.12,.12,.15s.16,.06,.25,.08c.04,0,.06,.04,.06,.08,0,.03,0,.06-.01,.11-.12,0-.23-.02-.34-.02-.11,0-.23,0-.35,0s-.25,0-.37,0-.23,.01-.34,.02c0-.04-.01-.08-.01-.11,0-.04,.02-.07,.06-.08,.1-.02,.19-.04,.27-.08,.08-.03,.12-.08,.12-.16v-1.81c0-.13-.02-.23-.07-.29-.05-.06-.15-.09-.3-.11-.06,0-.09-.04-.09-.09,0-.02,0-.05,.01-.09,.06,0,.14,0,.24,0,.1,0,.19-.01,.26-.02,.1-.02,.19-.04,.28-.06,.08-.02,.14-.03,.17-.03,.06,0,.09,.03,.09,.1,0,.06,0,.14-.02,.22-.01,.09-.02,.2-.02,.34,.19-.21,.37-.38,.55-.49,.17-.12,.37-.17,.57-.17,.27,0,.47,.08,.61,.24,.13,.16,.2,.38,.2,.65v1.61Z"/>
      <path class="cls-6" d="M75.62,35.35c-.21,0-.38,.09-.51,.27-.13,.18-.2,.43-.2,.74,0,.43,.1,.76,.29,1,.19,.24,.45,.36,.77,.36,.14,0,.26-.02,.36-.07,.1-.04,.18-.09,.25-.13,.01,0,.03-.02,.05-.03,.02-.01,.04-.02,.05-.02,.02,0,.05,.02,.07,.05s.04,.06,.05,.07c-.04,.05-.1,.11-.17,.16-.07,.05-.15,.1-.24,.15-.09,.05-.2,.08-.33,.11-.13,.03-.27,.04-.43,.04-.18,0-.35-.03-.51-.09-.16-.06-.3-.15-.42-.27-.12-.12-.22-.27-.29-.45-.07-.18-.11-.39-.11-.63,0-.23,.04-.43,.13-.62,.09-.19,.2-.35,.33-.48s.29-.24,.45-.31c.17-.08,.33-.11,.49-.11s.31,.02,.45,.05c.13,.04,.25,.08,.34,.14s.17,.12,.22,.2c.05,.08,.08,.16,.08,.24,0,.03-.02,.05-.07,.07s-.09,.03-.15,.04-.11,.02-.16,.02c-.05,0-.08,0-.09,0-.06,0-.1-.03-.14-.08-.03-.05-.07-.11-.11-.18-.04-.06-.09-.12-.16-.18-.07-.05-.17-.08-.29-.08Z"/>
      <path class="cls-6" d="M79.58,37.37s.06-.05,.1-.05c.04,0,.09,.04,.13,.11-.06,.08-.12,.16-.2,.23s-.17,.14-.27,.2c-.1,.06-.22,.11-.35,.14s-.29,.05-.46,.05-.34-.03-.5-.09c-.16-.06-.3-.15-.42-.27-.12-.12-.22-.27-.29-.44-.07-.18-.11-.39-.11-.62,0-.23,.04-.43,.13-.62s.2-.35,.33-.49c.14-.13,.29-.24,.46-.32,.17-.08,.33-.11,.48-.11,.41,0,.71,.12,.9,.36,.19,.24,.28,.55,.28,.94,0,.03-.01,.04-.04,.04l-1.92,.09c0,.17,.02,.33,.07,.48,.05,.15,.12,.27,.21,.38,.09,.11,.2,.19,.32,.25s.27,.09,.43,.09c.14,0,.28-.03,.41-.1s.24-.15,.33-.25Zm-1.07-2.03c-.22,0-.39,.09-.52,.26-.12,.17-.18,.4-.18,.68l1.25-.06c.07,0,.1-.03,.1-.09,0-.08-.01-.17-.04-.27s-.07-.18-.12-.26-.12-.14-.2-.19c-.08-.05-.18-.08-.29-.08Z"/>
    </g>
  </g>
</svg>